# xmcd
#
# Track frame offsets:
#	150
#	18842
#	36345
#	53413
#	69047
#	86818
#	106043
#	119523
#	135510
#	154860
#	180595
#	184508
#
# Disc length: 2464 seconds
#
# Revision: 0
# Processed by: cddbd v1.5.2PL0 Copyright (c) Steve Scherf et al.
# Submitted via: EasyCDDAExtractor 11.0.2.1
#
DISCID=8c099e0c
DTITLE=ใหม่ - Always
DYEAR=2006
DGENRE=Acapella
TTITLE0=ตามใจปาก
TTITLE1=น้ำแข็งบางบาง
TTITLE2=คนขี้เบื่อ ที่รักเธอ
TTITLE3=ไม่เข้าใจ
TTITLE4=น้ำหอมที่ไม่มีวันจาง
TTITLE5=แค่ร้อยปี
TTITLE6=มนตรา ปรารถนา อารมณ์
TTITLE7=อย่าเอาน้ำตากลับบ้าน
TTITLE8=นังซิน
TTITLE9=On The Beach
TTITLE10=ว่าง
TTITLE11=ว่าง
EXTD=
EXTT0=
EXTT1=
EXTT2=
EXTT3=
EXTT4=
EXTT5=
EXTT6=
EXTT7=
EXTT8=
EXTT9=
EXTT10=
EXTT11=
PLAYORDER=
